<svg width="187" height="48" viewBox="0 0 187 48" fill="none" xmlns="http://www.w3.org/2000/svg">
<path d="M54.7459 24.914H52.3641V20.5373H54.7459V13.9723C54.7459 12.2312 55.446 10.5613 56.692 9.33016C57.9381 8.09899 59.6281 7.40732 61.3903 7.40732H62.1154V11.784H61.7331C61.1503 11.784 60.5915 12.0127 60.1794 12.4198C59.7674 12.827 59.5359 13.3792 59.5359 13.9549V20.5373H61.9176V24.914H59.5359V38.0396H54.7459V24.914Z" fill="#00253C"/>
<path d="M65.3497 29.2863C65.3497 23.2814 71.6206 18.5835 77.8475 20.5807C79.787 21.2356 81.4681 22.4781 82.6515 24.1315C83.835 25.7849 84.4605 27.765 84.4392 29.79V38.0396H79.7459V36.5243C78.6385 37.7053 76.6698 38.4608 74.4726 38.4608C69.0982 38.4608 65.3497 34.7571 65.3497 29.2863ZM79.6536 29.0605C79.5997 27.8392 79.0739 26.6849 78.1845 25.8352C77.295 24.9854 76.1097 24.505 74.8725 24.4928C72.1304 24.4928 70.0825 26.5552 70.1221 29.3688C70.1301 29.9986 70.2641 30.6207 70.5164 31.1991C70.7687 31.7776 71.1343 32.301 71.5922 32.7393C72.05 33.1775 72.5911 33.522 73.1842 33.7528C73.7774 33.9836 74.4109 34.0962 75.0483 34.0841C77.8519 34.0016 79.7679 31.809 79.6536 29.0605Z" fill="#00253C"/>
<path d="M89.027 29.2863C89.027 23.8198 93.7994 20.1161 98.6553 20.1161C104.188 20.1161 108.108 23.8198 108.108 29.2863V38.0396H103.34V29.2863C103.347 28.1076 102.914 26.9677 102.122 26.086C101.33 25.2043 100.236 24.643 99.0508 24.5102C98.3757 24.4274 97.6904 24.4904 97.0424 24.6949C96.3944 24.8995 95.7991 25.2406 95.2976 25.6948C94.7961 26.149 94.4005 26.7054 94.138 27.3255C93.8756 27.9456 93.7525 28.6146 93.7774 29.2863V38.0396H89.027V29.2863Z" fill="#00253C"/>
<path d="M112.709 29.6814C112.709 24.6231 116.892 20.2117 122.012 20.1292C127.667 20.025 131.785 23.7547 131.785 29.2993C131.765 31.7266 130.781 34.049 129.044 35.7653C127.307 37.4817 124.956 38.4545 122.499 38.4738C120.704 38.5175 118.942 37.9859 117.477 36.9585V46.806H112.709V29.6814ZM126.999 29.0605C126.945 27.8385 126.419 26.6835 125.529 25.8337C124.638 24.9838 123.452 24.5039 122.214 24.4928C119.472 24.4928 117.424 26.5552 117.463 29.3688C117.471 29.9997 117.606 30.6229 117.859 31.2022C118.112 31.7815 118.479 32.3055 118.938 32.7439C119.397 33.1824 119.94 33.5266 120.535 33.7566C121.129 33.9866 121.764 34.0979 122.403 34.0841C125.206 34.0016 127.122 31.809 126.999 29.0605Z" fill="#00253C"/>
<path d="M136.333 10.6681C136.2 10.2021 136.187 9.7106 136.296 9.23846C136.405 8.76631 136.631 8.32854 136.955 7.96506C137.279 7.60159 137.689 7.32398 138.149 7.15754C138.61 6.99111 139.105 6.94115 139.589 7.01222C140.216 7.09735 140.798 7.38274 141.245 7.82488C141.693 8.26701 141.982 8.84162 142.068 9.46107C142.139 9.94024 142.088 10.4294 141.919 10.8839C141.75 11.3385 141.468 11.7441 141.1 12.0638C140.732 12.3835 140.289 12.6072 139.811 12.7146C139.333 12.8219 138.835 12.8095 138.363 12.6784C137.88 12.5405 137.441 12.2836 137.086 11.932C136.731 11.5804 136.472 11.1456 136.333 10.6681ZM136.724 20.5373H141.501V38.0396H136.724V20.5373Z" fill="#00253C"/>
<path d="M146.436 28.9997C146.563 24.089 150.923 20.1422 155.893 20.1161C158.573 20.1161 160.727 20.8543 162.616 22.7213L159.465 25.8345C158.516 24.9643 157.267 24.4831 155.972 24.4885C155.337 24.4757 154.705 24.591 154.117 24.8274C153.528 25.0637 152.994 25.4162 152.548 25.8631C152.102 26.3101 151.753 26.8423 151.521 27.4271C151.29 28.0119 151.182 28.6371 151.204 29.2646C151.19 29.8901 151.303 30.5121 151.537 31.0936C151.771 31.6751 152.12 32.2043 152.565 32.6498C153.01 33.0952 153.54 33.4479 154.126 33.6868C154.711 33.9258 155.339 34.0461 155.972 34.0407C157.252 34.0151 158.473 33.5036 159.382 32.6122L162.533 35.6516C161.685 36.5279 160.667 37.2259 159.54 37.7034C158.412 38.181 157.199 38.4283 155.972 38.4304C150.343 38.4608 146.295 34.6269 146.436 28.9997Z" fill="#00253C"/>
<path d="M166.703 34.0841H178.485C178.83 34.0924 179.167 33.9809 179.437 33.7692C179.708 33.5574 179.895 33.2586 179.966 32.9248C180.007 32.7219 180.001 32.5123 179.947 32.3121C179.894 32.112 179.794 31.9267 179.657 31.7705C179.519 31.6144 179.347 31.4917 179.154 31.4117C178.96 31.3318 178.751 31.2969 178.542 31.3096H171.647C170.93 31.3119 170.22 31.1741 169.557 30.9042C168.894 30.6342 168.292 30.2374 167.786 29.7366C167.279 29.2357 166.877 28.6408 166.604 27.986C166.331 27.3313 166.191 26.6296 166.193 25.9213C166.218 24.5003 166.801 23.1445 167.818 22.1399C168.836 21.1354 170.209 20.5608 171.647 20.5373H182.194V24.4928H172.069C171.693 24.4893 171.331 24.6315 171.061 24.8889C170.791 25.1463 170.633 25.4984 170.623 25.8692C170.618 26.0568 170.652 26.2433 170.723 26.4172C170.795 26.5911 170.901 26.7486 171.037 26.8799C171.173 27.0111 171.335 27.1133 171.512 27.1799C171.69 27.2466 171.879 27.2763 172.069 27.2673H178.968C179.687 27.258 180.4 27.391 181.066 27.6584C181.732 27.9259 182.337 28.3225 182.845 28.8247C183.354 29.3269 183.755 29.9247 184.026 30.5826C184.296 31.2406 184.431 31.9454 184.422 32.6556C184.383 34.0722 183.795 35.4201 182.781 36.4217C181.766 37.4233 180.402 38.0024 178.968 38.0396H166.703V34.0841Z" fill="#00253C"/>
<path d="M42.547 17.6456C41.3128 13.1105 38.5253 9.13857 34.6595 6.4065C30.7937 3.67442 26.0887 2.35126 21.3462 2.66247C16.6037 2.97367 12.1172 4.89999 8.65096 8.11319C5.18476 11.3264 2.9534 15.6277 2.33707 20.2842C1.72074 24.9407 2.75757 29.6643 5.2709 33.6501C7.78423 37.636 11.6186 40.6374 16.1206 42.1432C20.6226 43.6489 25.5137 43.5657 29.9606 41.9078C34.4075 40.2498 38.135 37.1197 40.508 33.0507C43.2279 28.3859 43.9613 22.8446 42.547 17.6456ZM39.9103 18.349C40.2461 19.5892 40.4464 20.8614 40.508 22.1438L33.657 26.0516V9.05291C36.7149 11.3902 38.9093 14.657 39.9015 18.349H39.9103ZM14.4753 27.5843V18.2361L22.6973 13.5208L30.9149 18.2361V27.5843L22.6973 32.2779L14.4753 27.5843ZM30.9149 7.27706V15.0621L16.0265 6.65617C18.1433 5.79165 20.407 5.33195 22.6973 5.30149C25.5611 5.29772 28.3823 5.9864 30.9149 7.30746V7.27706ZM13.1086 8.07598L19.9551 11.9837L5.06677 20.4505C5.40945 17.9322 6.3072 15.5189 7.6967 13.3807C9.0862 11.2426 10.9336 9.43178 13.1086 8.07598ZM4.8866 23.6548L11.7375 19.7731V36.7457C9.70549 35.1829 8.04068 33.2032 6.85792 30.9432C5.67516 28.6832 5.0026 26.1965 4.8866 23.6548ZM14.4753 38.5476V30.7322L29.3549 39.1425C26.9743 40.1046 24.4104 40.5436 21.841 40.4289C19.2717 40.3141 16.7583 39.6485 14.4753 38.4781V38.5476ZM32.286 37.7748L25.435 33.867L40.341 25.3351C39.9909 27.8615 39.0892 30.2825 37.6984 32.4304C36.3075 34.5784 34.4608 36.4019 32.286 37.7748Z" fill="#5587D1"/>
</svg>
