<svg width="32" height="32" viewBox="0 0 32 32" fill="none" xmlns="http://www.w3.org/2000/svg">
<path d="M26.6667 8.66668V13.65C26.6667 13.65 23.35 13.6667 23.3333 13.65V8.66668H18.3333C18.3333 8.66668 18.35 5.35001 18.3333 5.33334H23.3333V0.333344H26.6667V5.33334H31.6667V8.66668H26.6667ZM21.6667 15.3333V10.3333H16.6667V5.33334H3.33333C1.5 5.33334 0 6.83334 0 8.66668V28.6667C0 30.5 1.5 32 3.33333 32H23.3333C25.1667 32 26.6667 30.5 26.6667 28.6667V15.3333H21.6667ZM3.33333 28.6667L8.33333 22L11.6667 27L16.6667 20.3333L23.3333 28.6667H3.33333Z" fill="#565959"/>
</svg>
